{
  "accessors": [
    {
      "bufferView": 2,
      "componentType": 5126,
      "count": 8240,
      "max": [
        1.0941108465194702,
        1.6064034700393677,
        3.8380792140960693
      ],
      "min": [
        -1.0941108465194702,
        -0.35180598497390747,
        -2.5168101787567139
      ],
      "type": "VEC3"
    },
    {
      "bufferView": 2,
      "byteOffset": 98880,
      "componentType": 5126,
      "count": 8240,
      "max": [
        1,
        1,
        1
      ],
      "min": [
        -1,
        -1,
        -1
      ],
      "type": "VEC3"
    },
    {
      "bufferView": 1,
      "componentType": 5126,
      "count": 8240,
      "max": [
        1,
        1
      ],
      "min": [
        0,
        -7.4505805969238281e-09
      ],
      "type": "VEC2"
    },
    {
      "bufferView": 0,
      "componentType": 5125,
      "count": 31113,
      "max": [
        8239
      ],
      "min": [
        0
      ],
      "type": "SCALAR"
    },
    {
      "bufferView": 2,
      "byteOffset": 197760,
      "componentType": 5126,
      "count": 14257,
      "max": [
        1.1869261264801025,
        1.5476691722869873,
        3.7582216262817383
      ],
      "min": [
        -1.1869261264801025,
        -0.67137295007705688,
        -2.2729291915893555
      ],
      "type": "VEC3"
    },
    {
      "bufferView": 2,
      "byteOffset": 368844,
      "componentType": 5126,
      "count": 14257,
      "max": [
        1,
        1,
        1
      ],
      "min": [
        -1,
        -1,
        -1
      ],
      "type": "VEC3"
    },
    {
      "bufferView": 1,
      "byteOffset": 65920,
      "componentType": 5126,
      "count": 14257,
      "max": [
        1.0000002384185791,
        1
      ],
      "min": [
        0,
        -7.4505805969238281e-08
      ],
      "type": "VEC2"
    },
    {
      "bufferView": 0,
      "byteOffset": 124452,
      "componentType": 5125,
      "count": 56766,
      "max": [
        14256
      ],
      "min": [
        0
      ],
      "type": "SCALAR"
    },
    {
      "bufferView": 2,
      "byteOffset": 539928,
      "componentType": 5126,
      "count": 15146,
      "max": [
        1.1659176349639893,
        1.5991833209991455,
        3.5342831611633301
      ],
      "min": [
        -1.1659176349639893,
        -0.45589524507522583,
        -2.016240119934082
      ],
      "type": "VEC3"
    },
    {
      "bufferView": 2,
      "byteOffset": 721680,
      "componentType": 5126,
      "count": 15146,
      "max": [
        1,
        1,
        1
      ],
      "min": [
        -1,
        -1,
        -1
      ],
      "type": "VEC3"
    },
    {
      "bufferView": 1,
      "byteOffset": 179976,
      "componentType": 5126,
      "count": 15146,
      "max": [
        1,
        1
      ],
      "min": [
        0,
        0
      ],
      "type": "VEC2"
    },
    {
      "bufferView": 0,
      "byteOffset": 351516,
      "componentType": 5125,
      "count": 73170,
      "max": [
        15145
      ],
      "min": [
        0
      ],
      "type": "SCALAR"
    },
    {
      "bufferView": 2,
      "byteOffset": 903432,
      "componentType": 5126,
      "count": 10055,
      "max": [
        1.2053624391555786,
        1.6492681503295898,
        4.0505938529968262
      ],
      "min": [
        -1.2053624391555786,
        -0.30095008015632629,
        -2.5050475597381592
      ],
      "type": "VEC3"
    },
    {
      "bufferView": 2,
      "byteOffset": 1024092,
      "componentType": 5126,
      "count": 10055,
      "max": [
        1,
        1,
        1
      ],
      "min": [
        -1,
        -1,
        -1
      ],
      "type": "VEC3"
    },
    {
      "bufferView": 1,
      "byteOffset": 301144,
      "componentType": 5126,
      "count": 10055,
      "max": [
        1,
        1
      ],
      "min": [
        0,
        -5.9604644775390625e-08
      ],
      "type": "VEC2"
    },
    {
      "bufferView": 0,
      "byteOffset": 644196,
      "componentType": 5125,
      "count": 37368,
      "max": [
        10054
      ],
      "min": [
        0
      ],
      "type": "SCALAR"
    },
    {
      "bufferView": 2,
      "byteOffset": 1144752,
      "componentType": 5126,
      "count": 340,
      "max": [
        0.16344784200191498,
        0.32917565107345581,
        3.4083676338195801
      ],
      "min": [
        -0.16344784200191498,
        -0.15324693918228149,
        2.0540168285369873
      ],
      "type": "VEC3"
    },
    {
      "bufferView": 2,
      "byteOffset": 1148832,
      "componentType": 5126,
      "count": 340,
      "max": [
        1,
        1,
        1
      ],
      "min": [
        -1,
        -1,
        -1
      ],
      "type": "VEC3"
    },
    {
      "bufferView": 1,
      "byteOffset": 381584,
      "componentType": 5126,
      "count": 340,
      "max": [
        1,
        1
      ],
      "min": [
        0,
        0
      ],
      "type": "VEC2"
    },
    {
      "bufferView": 0,
      "byteOffset": 793668,
      "componentType": 5125,
      "count": 1344,
      "max": [
        339
      ],
      "min": [
        0
      ],
      "type": "SCALAR"
    },
    {
      "bufferView": 2,
      "byteOffset": 1152912,
      "componentType": 5126,
      "count": 7714,
      "max": [
        1.108896017074585,
        1.6912107467651367,
        4.1324906349182129
      ],
      "min": [
        -1.1088957786560059,
        -0.36852061748504639,
        -2.7041609287261963
      ],
      "type": "VEC3"
    },
    {
      "bufferView": 2,
      "byteOffset": 1245480,
      "componentType": 5126,
      "count": 7714,
      "max": [
        1,
        1,
        1
      ],
      "min": [
        -1,
        -1,
        -1
      ],
      "type": "VEC3"
    },
    {
      "bufferView": 1,
      "byteOffset": 384304,
      "componentType": 5126,
      "count": 7714,
      "max": [
        0.87500005960464478,
        1
      ],
      "min": [
        0.125,
        0
      ],
      "type": "VEC2"
    },
    {
      "bufferView": 0,
      "byteOffset": 799044,
      "componentType": 5125,
      "count": 21318,
      "max": [
        7713
      ],
      "min": [
        0
      ],
      "type": "SCALAR"
    },
    {
      "bufferView": 2,
      "byteOffset": 1338048,
      "componentType": 5126,
      "count": 2827,
      "max": [
        1.1065902709960938,
        1.5684747695922852,
        3.9640326499938965
      ],
      "min": [
        -1.1065902709960938,
        -0.34408900141716003,
        -1.7658958435058594
      ],
      "type": "VEC3"
    },
    {
      "bufferView": 2,
      "byteOffset": 1371972,
      "componentType": 5126,
      "count": 2827,
      "max": [
        1,
        1,
        1
      ],
      "min": [
        -1,
        -1,
        -1
      ],
      "type": "VEC3"
    },
    {
      "bufferView": 1,
      "byteOffset": 446016,
      "componentType": 5126,
      "count": 2827,
      "max": [
        1,
        1
      ],
      "min": [
        0,
        0
      ],
      "type": "VEC2"
    },
    {
      "bufferView": 0,
      "byteOffset": 884316,
      "componentType": 5125,
      "count": 6894,
      "max": [
        2826
      ],
      "min": [
        0
      ],
      "type": "SCALAR"
    },
    {
      "bufferView": 2,
      "byteOffset": 1405896,
      "componentType": 5126,
      "count": 32,
      "max": [
        1.1401258707046509,
        1.0851237773895264,
        2.4445912837982178
      ],
      "min": [
        -1.1401258707046509,
        0.90687620639801025,
        2.4310512542724609
      ],
      "type": "VEC3"
    },
    {
      "bufferView": 2,
      "byteOffset": 1406280,
      "componentType": 5126,
      "count": 32,
      "max": [
        0.072244711220264435,
        2.493467832209717e-08,
        -0.99738693237304688
      ],
      "min": [
        -0.072244629263877869,
        -2.4934687203881367e-08,
        -0.99738705158233643
      ],
      "type": "VEC3"
    },
    {
      "bufferView": 1,
      "byteOffset": 468632,
      "componentType": 5126,
      "count": 32,
      "max": [
        0.65625,
        0.99235260486602783
      ],
      "min": [
        0.34375,
        0.69514739513397217
      ],
      "type": "VEC2"
    },
    {
      "bufferView": 0,
      "byteOffset": 911892,
      "componentType": 5125,
      "count": 48,
      "max": [
        31
      ],
      "min": [
        0
      ],
      "type": "SCALAR"
    },
    {
      "bufferView": 2,
      "byteOffset": 1406664,
      "componentType": 5126,
      "count": 314,
      "max": [
        0.9205317497253418,
        1.5365945100784302,
        3.9757421016693115
      ],
      "min": [
        -0.9205317497253418,
        0.060292288661003113,
        0.9946628212928772
      ],
      "type": "VEC3"
    },
    {
      "bufferView": 2,
      "byteOffset": 1410432,
      "componentType": 5126,
      "count": 314,
      "max": [
        0.99596232175827026,
        0.99202293157577515,
        1
      ],
      "min": [
        -0.99596232175827026,
        -0.99202197790145874,
        0
      ],
      "type": "VEC3"
    },
    {
      "bufferView": 1,
      "byteOffset": 468888,
      "componentType": 5126,
      "count": 314,
      "max": [
        1,
        1
      ],
      "min": [
        0,
        0
      ],
      "type": "VEC2"
    },
    {
      "bufferView": 0,
      "byteOffset": 912084,
      "componentType": 5125,
      "count": 1032,
      "max": [
        313
      ],
      "min": [
        0
      ],
      "type": "SCALAR"
    },
    {
      "bufferView": 2,
      "byteOffset": 1414200,
      "componentType": 5126,
      "count": 312,
      "max": [
        1.0654886960983276,
        0.53792178630828857,
        3.8540911674499512
      ],
      "min": [
        -1.0657968521118164,
        0.43135029077529907,
        -2.4896044731140137
      ],
      "type": "VEC3"
    },
    {
      "bufferView": 2,
      "byteOffset": 1417944,
      "componentType": 5126,
      "count": 312,
      "max": [
        0.89221864938735962,
        0.84854805469512939,
        0.97446507215499878
      ],
      "min": [
        -0.89221930503845215,
        -0.84855163097381592,
        -0.97446465492248535
      ],
      "type": "VEC3"
    },
    {
      "bufferView": 1,
      "byteOffset": 471400,
      "componentType": 5126,
      "count": 312,
      "max": [
        0.65625,
        0.99235260486602783
      ],
      "min": [
        0.34375,
        0.3125
      ],
      "type": "VEC2"
    },
    {
      "bufferView": 0,
      "byteOffset": 916212,
      "componentType": 5125,
      "count": 1224,
      "max": [
        311
      ],
      "min": [
        0
      ],
      "type": "SCALAR"
    }
  ],
  "asset": {
    "extras": {
      "author": "Elliot Whitehouse (https://sketchfab.com/ellwhitehouse)",
      "license": "CC-BY-4.0 (http://creativecommons.org/licenses/by/4.0/)",
      "source": "https://sketchfab.com/3d-models/soviet-truck-3e5dc8e366e84efaadf910078e173c60",
      "title": "Soviet Truck"
    },
    "generator": "Sketchfab-8.23.0",
    "version": "2.0"
  },
  "bufferViews": [
    {
      "buffer": 0,
      "byteLength": 921108,
      "byteOffset": 0,
      "name": "floatBufferViews",
      "target": 34963
    },
    {
      "buffer": 0,
      "byteLength": 473896,
      "byteOffset": 921108,
      "byteStride": 8,
      "name": "floatBufferViews",
      "target": 34962
    },
    {
      "buffer": 0,
      "byteLength": 1421688,
      "byteOffset": 1395004,
      "byteStride": 12,
      "name": "floatBufferViews",
      "target": 34962
    }
  ],
  "buffers": [
    {
      "byteLength": 2816692,
      "uri": "scene.bin"
    }
  ],
  "materials": [
    {
      "doubleSided": false,
      "emissiveFactor": [
        0,
        0,
        0
      ],
      "name": "engineparts",
      "pbrMetallicRoughness": {
        "baseColorFactor": [
          0.022903998576993965,
          0.022903998576993965,
          0.022903998576993965,
          1
        ],
        "metallicFactor": 1,
        "roughnessFactor": 0.30316310975609762
      }
    },
    {
      "doubleSided": false,
      "name": "rubber",
      "pbrMetallicRoughness": {
        "baseColorFactor": [
          0.0064935100000000001,
          0.0064935100000000001,
          0.0064935100000000001,
          1
        ],
        "metallicFactor": 1,
        "roughnessFactor": 1
      }
    },
    {
      "doubleSided": true,
      "emissiveFactor": [
        0,
        0,
        0
      ],
      "name": "exhaust",
      "pbrMetallicRoughness": {
        "baseColorFactor": [
          0.097402600000000006,
          0.097402600000000006,
          0.097402600000000006,
          1
        ],
        "metallicFactor": 1,
        "roughnessFactor": 0.42854420731707316
      }
    },
    {
      "doubleSided": true,
      "name": "paintedmetal",
      "pbrMetallicRoughness": {
        "baseColorFactor": [
          0.051032990150021725,
          0.081981595687409481,
          0.12256760431052599,
          1
        ],
        "metallicFactor": 1,
        "roughnessFactor": 0.44073932926829268
      }
    },
    {
      "doubleSided": false,
      "name": "block",
      "pbrMetallicRoughness": {
        "baseColorFactor": [
          0.031474436505773799,
          0.031474436505773799,
          0.031474436505773799,
          1
        ],
        "metallicFactor": 1,
        "roughnessFactor": 1
      }
    },
    {
      "doubleSided": false,
      "name": "frame",
      "pbrMetallicRoughness": {
        "baseColorFactor": [
          0.067000000000000004,
          0.067000000000000004,
          0.067000000000000004,
          1
        ],
        "metallicFactor": 1,
        "roughnessFactor": 0.29706554878048785
      }
    },
    {
      "doubleSided": false,
      "name": "lambert1",
      "pbrMetallicRoughness": {
        "baseColorFactor": [
          0.5,
          0.5,
          0.5,
          1
        ],
        "metallicFactor": 1,
        "roughnessFactor": 0.12023628048780488
      }
    },
    {
      "doubleSided": false,
      "name": "Mirror",
      "pbrMetallicRoughness": {
        "baseColorFactor": [
          1,
          1,
          1,
          1
        ],
        "metallicFactor": 1,
        "roughnessFactor": 0
      }
    },
    {
      "alphaMode": "BLEND",
      "doubleSided": false,
      "name": "Glass",
      "pbrMetallicRoughness": {
        "baseColorFactor": [
          1,
          1,
          1,
          0.026105182926829267
        ],
        "metallicFactor": 1,
        "roughnessFactor": 0
      }
    },
    {
      "alphaMode": "BLEND",
      "doubleSided": false,
      "name": "Indicator",
      "pbrMetallicRoughness": {
        "baseColorFactor": [
          1,
          0.5,
          0,
          0.45903201219512196
        ],
        "metallicFactor": 1,
        "roughnessFactor": 0.22389481707317072
      }
    }
  ],
  "meshes": [
    {
      "name": "pCylinder111_engineparts_0",
      "primitives": [
        {
          "attributes": {
            "NORMAL": 1,
            "POSITION": 0,
            "TEXCOORD_0": 2
          },
          "indices": 3,
          "material": 0,
          "mode": 4
        }
      ]
    },
    {
      "name": "pCylinder111_rubber_0",
      "primitives": [
        {
          "attributes": {
            "NORMAL": 5,
            "POSITION": 4,
            "TEXCOORD_0": 6
          },
          "indices": 7,
          "material": 1,
          "mode": 4
        }
      ]
    },
    {
      "name": "pCylinder111_exhaust_0",
      "primitives": [
        {
          "attributes": {
            "NORMAL": 9,
            "POSITION": 8,
            "TEXCOORD_0": 10
          },
          "indices": 11,
          "material": 2,
          "mode": 4
        }
      ]
    },
    {
      "name": "pCylinder111_paintedmetal_0",
      "primitives": [
        {
          "attributes": {
            "NORMAL": 13,
            "POSITION": 12,
            "TEXCOORD_0": 14
          },
          "indices": 15,
          "material": 3,
          "mode": 4
        }
      ]
    },
    {
      "name": "pCylinder111_block_0",
      "primitives": [
        {
          "attributes": {
            "NORMAL": 17,
            "POSITION": 16,
            "TEXCOORD_0": 18
          },
          "indices": 19,
          "material": 4,
          "mode": 4
        }
      ]
    },
    {
      "name": "pCylinder111_frame_0",
      "primitives": [
        {
          "attributes": {
            "NORMAL": 21,
            "POSITION": 20,
            "TEXCOORD_0": 22
          },
          "indices": 23,
          "material": 5,
          "mode": 4
        }
      ]
    },
    {
      "name": "pCylinder111_lambert1_0",
      "primitives": [
        {
          "attributes": {
            "NORMAL": 25,
            "POSITION": 24,
            "TEXCOORD_0": 26
          },
          "indices": 27,
          "material": 6,
          "mode": 4
        }
      ]
    },
    {
      "name": "pCylinder111_Mirror_0",
      "primitives": [
        {
          "attributes": {
            "NORMAL": 29,
            "POSITION": 28,
            "TEXCOORD_0": 30
          },
          "indices": 31,
          "material": 7,
          "mode": 4
        }
      ]
    },
    {
      "name": "pCylinder111_Glass_0",
      "primitives": [
        {
          "attributes": {
            "NORMAL": 33,
            "POSITION": 32,
            "TEXCOORD_0": 34
          },
          "indices": 35,
          "material": 8,
          "mode": 4
        }
      ]
    },
    {
      "name": "pCylinder111_Indicator_0",
      "primitives": [
        {
          "attributes": {
            "NORMAL": 37,
            "POSITION": 36,
            "TEXCOORD_0": 38
          },
          "indices": 39,
          "material": 9,
          "mode": 4
        }
      ]
    }
  ],
  "nodes": [
    {
      "children": [
        1
      ],
      "name": "RootNode (gltf orientation matrix)",
      "rotation": [
        -0.70710678118654746,
        -0,
        -0,
        0.70710678118654757
      ]
    },
    {
      "children": [
        2
      ],
      "matrix": [
        0.88924378156661987,
        0,
        0,
        0,
        0,
        0.88924378156661987,
        0,
        0,
        0,
        0,
        0.88924378156661987,
        0,
        0,
        0,
        0,
        1
      ],
      "name": "RootNode (model correction matrix)"
    },
    {
      "children": [
        3
      ],
      "matrix": [
        1,
        0,
        0,
        0,
        0,
        0,
        1,
        0,
        0,
        -1,
        0,
        0,
        0,
        0,
        0,
        1
      ],
      "name": "11dc320d47e8440c943c66c965344c8f.fbx"
    },
    {
      "children": [
        4
      ],
      "name": "RootNode"
    },
    {
      "children": [
        5,
        6,
        7,
        8,
        9,
        10,
        11,
        12,
        13,
        14
      ],
      "name": "pCylinder111"
    },
    {
      "mesh": 0,
      "name": "pCylinder111_engineparts_0"
    },
    {
      "mesh": 1,
      "name": "pCylinder111_rubber_0"
    },
    {
      "mesh": 2,
      "name": "pCylinder111_exhaust_0"
    },
    {
      "mesh": 3,
      "name": "pCylinder111_paintedmetal_0"
    },
    {
      "mesh": 4,
      "name": "pCylinder111_block_0"
    },
    {
      "mesh": 5,
      "name": "pCylinder111_frame_0"
    },
    {
      "mesh": 6,
      "name": "pCylinder111_lambert1_0"
    },
    {
      "mesh": 7,
      "name": "pCylinder111_Mirror_0"
    },
    {
      "mesh": 8,
      "name": "pCylinder111_Glass_0"
    },
    {
      "mesh": 9,
      "name": "pCylinder111_Indicator_0"
    }
  ],
  "scene": 0,
  "scenes": [
    {
      "name": "OSG_Scene",
      "nodes": [
        0
      ]
    }
  ]
}

